<svg width="103" height="124" fill="none" xmlns="http://www.w3.org/2000/svg"><g filter="url(#filter0_d)"><path d="M22 45.257C22 29.125 35.125 16 51.256 16s29.256 13.125 29.257 29.257c0 4.208-.86 8.226-2.558 11.943-7.317 16.007-21.341 32.906-25.465 37.703a1.63 1.63 0 01-2.467 0c-4.125-4.798-18.15-21.697-25.464-37.704C22.86 53.483 22 49.465 22 45.258z" fill="#A61744"/><path d="M81.513 45.257v0C81.512 28.573 67.94 15 51.256 15S21 28.573 21 45.257c0 4.347.89 8.507 2.649 12.358h0c7.38 16.148 21.489 33.14 25.615 37.94h.001a2.629 2.629 0 003.983 0h0c4.125-4.799 18.235-21.79 25.616-37.94h0c1.76-3.851 2.65-8.011 2.65-12.358z" stroke="#fff" stroke-width="2"/></g><circle cx="51.253" cy="45.206" r="22.655" fill="#fff"/><path d="M35.742 57.816H66.41m-21.336 0v-23.31c0-.715.597-1.295 1.334-1.295h9.333c.736 0 1.333.58 1.333 1.295v23.31m8.002.001V45.515a.657.657 0 00-.667-.648h-4a.657.657 0 00-.667.648v12.302m-17.334 0V45.515a.657.657 0 00-.667-.648h-4a.657.657 0 00-.667.648v12.302m4-12.952V43.57m20 1.295V43.57m-8-10.36v-1.942a.657.657 0 00-.666-.647H49.74a.657.657 0 00-.667.647v1.942m2.669-2.59v-2.589m-4 9.067h6.667m-6.667 3.882h6.667m-6.667 3.887h6.667m-6.667 3.883h6.667m-6.667 3.887h6.667" stroke="#A61744" stroke-width="1.5" stroke-linecap="round" stroke-linejoin="round"/><defs><filter id="filter0_d" x="0" y="0" width="102.514" height="123.468" filterUnits="userSpaceOnUse" color-interpolation-filters="sRGB"><feFlood flood-opacity="0" result="BackgroundImageFix"/><feColorMatrix in="SourceAlpha" values="0 0 0 0 0 0 0 0 0 0 0 0 0 0 0 0 0 0 127 0"/><feOffset dy="6"/><feGaussianBlur stdDeviation="10"/><feColorMatrix values="0 0 0 0 0 0 0 0 0 0 0 0 0 0 0 0 0 0 0.2 0"/><feBlend in2="BackgroundImageFix" result="effect1_dropShadow"/><feBlend in="SourceGraphic" in2="effect1_dropShadow" result="shape"/></filter></defs></svg>