<svg width="103" height="126" fill="none" xmlns="http://www.w3.org/2000/svg"><g filter="url(#filter0_d)"><path d="M51.256 16.95C35.125 16.95 22 30.227 22 46.55c0 4.256.861 8.321 2.559 12.081 7.314 16.194 21.339 33.291 25.464 38.145.309.363.76.572 1.233.572a1.62 1.62 0 001.234-.572c4.123-4.853 18.148-21.95 25.465-38.145 1.698-3.76 2.558-7.825 2.558-12.082-.001-16.321-13.126-29.6-29.257-29.6zm0 44.973c-8.38 0-15.197-6.897-15.197-15.375s6.817-15.376 15.197-15.376c8.379 0 15.197 6.898 15.197 15.376s-6.817 15.375-15.197 15.375z" fill="#BF202D"/><path d="M51.256 16.95C35.125 16.95 22 30.227 22 46.55c0 4.256.861 8.321 2.559 12.081 7.314 16.194 21.339 33.291 25.464 38.145.309.363.76.572 1.233.572a1.62 1.62 0 001.234-.572c4.123-4.853 18.148-21.95 25.465-38.145 1.698-3.76 2.558-7.825 2.558-12.082-.001-16.321-13.126-29.6-29.257-29.6zm0 44.973c-8.38 0-15.197-6.897-15.197-15.375s6.817-15.376 15.197-15.376c8.379 0 15.197 6.898 15.197 15.376s-6.817 15.375-15.197 15.375z" fill="url(#paint0_linear)" fill-opacity=".74"/><path d="M23.647 59.043h0c7.378 16.334 21.487 33.525 25.614 38.38v.001a2.62 2.62 0 001.995.924c.77 0 1.498-.34 1.995-.924h.001c4.125-4.855 18.234-22.045 25.614-38.381h0c1.759-3.894 2.647-8.1 2.647-12.494v0c-.001-16.863-13.563-30.6-30.257-30.6C34.562 15.95 21 29.686 21 46.55c0 4.395.89 8.6 2.647 12.494zm41.806-12.495v0c0 7.936-6.38 14.375-14.197 14.375-7.816 0-14.197-6.439-14.197-14.375 0-7.937 6.38-14.376 14.197-14.376 7.816 0 14.197 6.44 14.197 14.376z" stroke="#fff" stroke-width="2"/></g><defs><linearGradient id="paint0_linear" x1="80.759" y1="27.961" x2="22.736" y2="27.873" gradientUnits="userSpaceOnUse"><stop stop-color="#F45C1B"/><stop offset="1" stop-color="#AA4141" stop-opacity="0"/></linearGradient><filter id="filter0_d" x="0" y=".949" width="102.514" height="124.399" filterUnits="userSpaceOnUse" color-interpolation-filters="sRGB"><feFlood flood-opacity="0" result="BackgroundImageFix"/><feColorMatrix in="SourceAlpha" values="0 0 0 0 0 0 0 0 0 0 0 0 0 0 0 0 0 0 127 0"/><feOffset dy="6"/><feGaussianBlur stdDeviation="10"/><feColorMatrix values="0 0 0 0 0 0 0 0 0 0 0 0 0 0 0 0 0 0 0.2 0"/><feBlend in2="BackgroundImageFix" result="effect1_dropShadow"/><feBlend in="SourceGraphic" in2="effect1_dropShadow" result="shape"/></filter></defs></svg>