<svg width="44" height="60" fill="none" xmlns="http://www.w3.org/2000/svg"><path d="M21.995 38.244c8.554 0 15.488-6.934 15.488-15.487 0-8.554-6.934-15.487-15.488-15.487-8.553 0-15.487 6.934-15.487 15.487s6.934 15.487 15.487 15.487z" fill="#fff"/><path fill-rule="evenodd" clip-rule="evenodd" d="M44 22.793c-.001-12.132-9.869-22-22-22-12.132 0-22 9.868-22 22 0 3.155.647 6.186 1.93 8.995 5.129 11.224 14.887 22.964 17.71 26.247l.001.002a3.114 3.114 0 004.717 0l.002-.002c2.822-3.283 12.579-15.021 17.71-26.246 1.284-2.81 1.93-5.841 1.93-8.996zm-3.75 8.164c-5 10.943-14.587 22.495-17.406 25.774a1.114 1.114 0 01-1.687 0C18.336 53.451 8.75 41.899 3.75 30.957 2.59 28.417 2 25.67 2 22.793c0-11.028 8.972-20 20-20 11.027 0 19.999 8.972 20 20 0 2.877-.588 5.623-1.75 8.164z" fill="#fff"/><path d="M19.598 16.031a.75.75 0 100 1.5h4.557a.75.75 0 100-1.5h-4.557zm-.75 3.403a.75.75 0 01.75-.75h4.557a.75.75 0 010 1.5h-4.557a.75.75 0 01-.75-.75zm.75 1.906a.75.75 0 100 1.5h4.557a.75.75 0 100-1.5h-4.557zm-.75 3.406a.75.75 0 01.75-.75h4.557a.75.75 0 010 1.5h-4.557a.75.75 0 01-.75-.75zm.75 1.906a.75.75 0 100 1.5h4.557a.75.75 0 100-1.5h-4.557z" fill="#303030"/><path fill-rule="evenodd" clip-rule="evenodd" d="M22.332 9.832a.75.75 0 01.75.75v1.056c.512.129.91.583.91 1.156v.577h1.073c.897 0 1.662.712 1.662 1.635v15.185h.324v-7.659c0-.572.398-1.027.91-1.156v-.173a.75.75 0 011.5 0v.137h1.53a1.2 1.2 0 011.206 1.192v7.66h.161a.75.75 0 110 1.5h-.873a.708.708 0 01-.077 0H27.84a.708.708 0 01-.077 0H15.99a.708.708 0 01-.077 0h-3.569a.708.708 0 01-.077 0h-.871a.75.75 0 010-1.5h.16v-7.66a1.2 1.2 0 011.205-1.192h1.53v-.137a.75.75 0 111.5 0v.173c.511.128.91.583.91 1.156v7.66h.323V15.005c0-.923.765-1.635 1.662-1.635h1.073v-.577a1.2 1.2 0 011.206-1.192h.618v-1.02a.75.75 0 01.75-.75zm0 3.27h-1.074v.27h1.234v-.27h-.16zm.884 1.77a.748.748 0 00.052 0h1.797c.11 0 .162.08.162.134v15.185h-6.704V15.006c0-.054.052-.135.162-.135h1.797a.748.748 0 00.052 0h2.682zm-8.015 7.968v7.351h-2.146V22.84H15.2zm13.35 7.351h2.146V22.84H28.55v7.351z" fill="#303030"/></svg>