<svg width="44" height="60" fill="none" xmlns="http://www.w3.org/2000/svg"><path fill-rule="evenodd" clip-rule="evenodd" d="M1.926 31.532C.646 28.694 0 25.634 0 22.449 0 10.21 9.846.215 22 .215c12.153 0 21.999 9.995 22 22.234 0 3.185-.645 6.245-1.926 9.083-5.13 11.352-14.885 23.226-17.707 26.548l-.001.001a3.108 3.108 0 01-4.732 0l-.002-.001C16.81 54.758 7.054 42.883 1.926 31.532zm28.462-9.083c0-4.714-3.787-8.511-8.389-8.511-4.601 0-8.389 3.797-8.389 8.51 0 4.713 3.788 8.511 8.39 8.511s8.388-3.798 8.388-8.51zm-26.639 8.26C2.59 28.139 2 25.359 2 22.449 2 11.292 10.972 2.215 22 2.215c11.027 0 19.999 9.077 20 20.234 0 2.91-.588 5.69-1.75 8.26-5 11.071-14.587 22.758-17.406 26.076a1.108 1.108 0 01-1.687 0C18.336 53.467 8.75 41.779 3.75 30.709zm28.639-8.26c0-5.796-4.66-10.511-10.389-10.511-5.728 0-10.389 4.715-10.389 10.51 0 5.796 4.661 10.511 10.39 10.511 5.728 0 10.389-4.715 10.388-10.51z" fill="#fff"/></svg>