<svg width="50" height="49" fill="none" xmlns="http://www.w3.org/2000/svg"><path d="M10.888 5.942l.67-.658a.998.998 0 01.104-.1l4.423-4.34a1 1 0 011.4 1.429L14.75 4.955l30.79.12-2.716-2.706A1 1 0 0144.236.952l4.413 4.396.055.055.69.687-5.198 5.097a1 1 0 11-1.4-1.428l2.738-2.685-30.795-.119 2.718 2.708a1 1 0 01-1.411 1.416l-4.428-4.41-.03-.03-.7-.697zm-4.323 5.042l-.69-.698-.69.698a.978.978 0 00-.042.043L.758 15.463A1 1 0 002.18 16.87l2.695-2.726v30.791L2.18 42.209a1 1 0 00-1.422 1.406l4.37 4.422c.024.026.047.05.072.073l.675.682.675-.682a1.01 1.01 0 00.071-.073l4.371-4.422a1 1 0 00-1.422-1.406l-2.695 2.727V14.142l2.695 2.726a1 1 0 101.422-1.406l-4.385-4.436a.978.978 0 00-.042-.043z" fill="#A61744"/><path fill-rule="evenodd" clip-rule="evenodd" d="M37.04 48.318h9.761V16.606H15.09v31.712h9.557a1 1 0 00.643 0h11.107a.998.998 0 00.643 0zm-2.79-29.712h-3.875v16.389h-8.344a1 1 0 010-2h6.344V18.606H17.09v6.961h6.41a1 1 0 110 2h-6.41v12.86h8.879v5.89h9.75v-12.32a1 1 0 112 0v3.453H44.8V26.079H34.25v-7.473zm3.469 20.844v6.867H44.8V39.45h-7.08zM36.25 18.606v5.473h8.551v-5.473H36.25zM23.969 46.318v-3.892h-6.88v3.892h6.88z" fill="#A61744"/></svg>