<svg width="49" height="51" fill="none" xmlns="http://www.w3.org/2000/svg"><path d="M24.75 1.167a1 1 0 00-1.205 0L.397 18.653a1 1 0 001.206 1.596l22.544-17.03 22.545 17.03a1 1 0 001.206-1.596L24.75 1.167z" fill="#A61744"/><path fill-rule="evenodd" clip-rule="evenodd" d="M11.802 20.04c-3.99 0-7.173 3.322-7.173 7.358 0 4.035 3.183 7.358 7.173 7.358 3.989 0 7.172-3.323 7.172-7.358 0-4.036-3.183-7.359-7.172-7.359zm-5.173 7.358c0-2.988 2.344-5.359 5.173-5.359s5.172 2.371 5.172 5.358c0 2.988-2.343 5.359-5.172 5.359-2.83 0-5.173-2.37-5.173-5.358z" fill="#A61744"/><path d="M5.866 37.88a10.033 10.033 0 019.364-1.337 1 1 0 11-.684 1.88 8.033 8.033 0 00-7.502 1.074c-2.19 1.596-3.502 4.196-3.501 6.98a1 1 0 01-2 .001c-.001-3.409 1.604-6.617 4.323-8.598zm36.562 0a10.034 10.034 0 00-9.364-1.337 1 1 0 00.685 1.88 8.034 8.034 0 017.502 1.074c2.19 1.596 3.502 4.196 3.5 6.98a1 1 0 102 .001c.002-3.409-1.604-6.617-4.322-8.598z" fill="#A61744"/><path fill-rule="evenodd" clip-rule="evenodd" d="M29.316 27.398c0-4.036 3.184-7.359 7.173-7.359 3.95 0 7.11 3.257 7.172 7.239a.944.944 0 01.007.12h-.006c0 4.035-3.184 7.358-7.173 7.358s-7.173-3.323-7.173-7.358zm7.173-5.359c-2.829 0-5.173 2.371-5.173 5.358 0 2.988 2.344 5.359 5.173 5.359 2.83 0 5.173-2.37 5.173-5.358 0-2.988-2.344-5.359-5.173-5.359zM18.52 38.527c0-3.158 2.492-5.77 5.629-5.77 3.137 0 5.63 2.612 5.63 5.77 0 2.562-1.642 4.764-3.936 5.504 3.002.515 5.655 2.384 7.197 5.133a1 1 0 11-1.745.978c-1.482-2.643-4.21-4.255-7.145-4.255-2.935 0-5.662 1.612-7.145 4.255a1 1 0 01-1.744-.978c1.541-2.749 4.193-4.617 7.195-5.133-2.295-.74-3.936-2.942-3.936-5.504zm5.629-3.77c-1.977 0-3.63 1.66-3.63 3.77 0 2.11 1.653 3.768 3.63 3.768 1.977 0 3.63-1.659 3.63-3.768 0-2.11-1.653-3.77-3.63-3.77z" fill="#A61744"/></svg>