<svg width="17" height="17" fill="none" xmlns="http://www.w3.org/2000/svg"><path d="M13.323 8.54a.671.671 0 00-.667.675v5.122c0 .569-.458 1.032-1.02 1.032H2.355c-.563 0-1.02-.463-1.02-1.032v-9.39c0-.569.457-1.032 1.02-1.032h5.062a.671.671 0 00.668-.675.671.671 0 00-.668-.675H2.355C1.056 2.565 0 3.634 0 4.947v9.39c0 1.314 1.056 2.382 2.355 2.382h9.28c1.3 0 2.356-1.068 2.356-2.382V9.215a.671.671 0 00-.668-.675zM15.854.004h-5.062a.671.671 0 00-.667.675c0 .373.299.675.667.675h4.395v4.447c0 .373.299.675.668.675a.671.671 0 00.667-.675V.679a.671.671 0 00-.667-.675z" fill="#fff"/><path d="M16.326.202a.662.662 0 00-.943 0l-9.281 9.39a.68.68 0 000 .954.661.661 0 00.943 0l9.281-9.39a.68.68 0 000-.954z" fill="#fff"/></svg>