<svg width="49" height="49" fill="none" xmlns="http://www.w3.org/2000/svg"><path fill-rule="evenodd" clip-rule="evenodd" d="M31.355 6.543a1 1 0 00-1 1v13.869a1 1 0 102 0v-4.944h2.917c2.727 0 4.917-2.233 4.917-4.963s-2.19-4.962-4.917-4.962h-3.916zm3.917 7.925h-2.916V8.543h2.916c1.6 0 2.917 1.315 2.917 2.963 0 1.647-1.317 2.962-2.917 2.962z" fill="#A61744"/><path fill-rule="evenodd" clip-rule="evenodd" d="M20.563 14.476c0-7.654 6.135-13.878 13.729-13.878 7.593 0 13.729 6.224 13.729 13.878s-6.136 13.878-13.73 13.878c-7.593 0-13.728-6.224-13.728-13.878zM34.291 2.598c-6.467 0-11.73 5.307-11.73 11.878s5.263 11.878 11.73 11.878c6.467 0 11.729-5.307 11.729-11.878S40.759 2.598 34.29 2.598z" fill="#A61744"/><path fill-rule="evenodd" clip-rule="evenodd" d="M10.48 20.41a1.98 1.98 0 00-1.841 1.254l-3.594 9.092-3.49 3.532a1.997 1.997 0 00-.575 1.401v6.524c0 1.081.864 1.979 1.958 1.99v1.972c0 1.088.875 1.99 1.979 1.99h3.916c1.104 0 1.98-.902 1.98-1.99v-1.971h19.542v1.971c0 1.088.876 1.99 1.98 1.99h3.916c1.104 0 1.98-.902 1.98-1.99v-1.971a1.985 1.985 0 001.958-1.99v-6.525c0-.523-.205-1.028-.574-1.401l-3.925-3.972H7.37l3.125-7.906h8.037a1 1 0 000-2H10.48l-.002 1 .001-1zm.014 2h-.017.002l.008-.001.007-.003.003-.004.001-.001-.003.01zm.299 17.832H2.98v1.962h.915a.98.98 0 01.085 0h5.79a.98.98 0 01.043 0h21.5a.978.978 0 01.085 0h5.79a.978.978 0 01.085 0h.916v-1.962h-7.814a1 1 0 110-2h7.814V35.69l-3.334-3.374H6.315L2.98 35.69v2.552h7.813a1 1 0 110 2zm-5.855 5.924v-1.962h3.875v1.962H4.937zm31.293-1.962h-3.876v1.962h3.876v-1.962z" fill="#A61744"/></svg>