<svg width="45" height="45" fill="none" xmlns="http://www.w3.org/2000/svg"><path fill-rule="evenodd" clip-rule="evenodd" d="M41.657 1.465L41.454.73h-1.243l-.559.001H5.347a432.466 432.466 0 00-1.124 0h-.811l-.168.794c-.052.248-.107.486-.158.711l-.09.393-2.59 11.798v.108c0 2.899 2.326 5.269 5.219 5.269a5.192 5.192 0 004.219-2.167 5.192 5.192 0 004.219 2.167 5.192 5.192 0 004.218-2.167 5.193 5.193 0 004.219 2.167 5.193 5.193 0 004.219-2.167 5.192 5.192 0 004.218 2.167 5.192 5.192 0 004.22-2.167 5.193 5.193 0 004.218 2.167c2.893 0 5.219-2.37 5.219-5.269v-.108L42.002 2.63a7.64 7.64 0 00-.183-.646l-.042-.13c-.05-.155-.09-.282-.12-.39zm-30.813 13.07h-2c0 1.816-1.452 3.269-3.219 3.269-1.734 0-3.164-1.399-3.217-3.167L4.95 3.06l.074-.329h34.933c.042.136.073.246.091.328l2.544 11.578c-.053 1.768-1.483 3.167-3.217 3.167-1.767 0-3.219-1.453-3.219-3.269h-2c0 1.816-1.452 3.269-3.218 3.269-1.767 0-3.22-1.453-3.22-3.269h-2c0 1.816-1.451 3.269-3.218 3.269s-3.219-1.453-3.219-3.269h-2c0 1.816-1.452 3.269-3.218 3.269-1.767 0-3.22-1.453-3.22-3.269z" fill="#A61744"/><path d="M4.7 20.895a1 1 0 00-1 1v21.794a1 1 0 001 1h7.03a1 1 0 100-2H5.7V21.895a1 1 0 00-1-1zm37.081 1a1 1 0 10-2 0v20.794H33.75a1 1 0 100 2h7.031a1 1 0 001-1V21.895z" fill="#A61744"/><path fill-rule="evenodd" clip-rule="evenodd" d="M21.676 24.192a1 1 0 01.828.42c1.12 1.58 2.262 3.44 2.777 4.478 1.167.178 4.016.9 5.121 1.273a1 1 0 01.515 1.498c-.3.455-.975 1.3-1.64 2.092-.65.775-1.355 1.576-1.78 2 .173 1.053.254 2.787.348 4.768l.022.467a1 1 0 01-1.38.972c-.366-.15-.867-.345-1.424-.56l-1.024-.399c-.883-.347-1.808-.721-2.35-1.002-1.047.545-3.604 1.548-4.85 1.981a1 1 0 01-1.328-.944c0-1.3.181-4.128.37-5.285-.834-.83-2.594-2.95-3.394-4.053a1 1 0 01.471-1.528c1.636-.589 4.008-1.11 5.14-1.28.518-1.043 1.676-2.845 2.76-4.457a1 1 0 01.818-.441zm-1.8 5.858l-.004.007c-.279.56-.813.95-1.436 1.042-.742.108-2.169.407-3.471.773.825 1.03 1.848 2.227 2.356 2.725h.001c.445.439.646 1.067.541 1.68-.116.683-.24 2.241-.305 3.544 1.217-.467 2.626-1.049 3.241-1.374l.002-.002a1.913 1.913 0 011.783 0l.002.002c.414.219 1.25.561 2.187.93l.982.382.043.017c-.076-1.547-.151-2.756-.278-3.499v-.003a1.91 1.91 0 01.544-1.677c.346-.34 1.017-1.096 1.684-1.892.235-.28.46-.553.664-.807a59.67 59.67 0 00-1.601-.407 91.14 91.14 0 00-2.337-.526 1.91 1.91 0 01-.962-.91l-.002-.004a17.837 17.837 0 00-.58-1.06 43.834 43.834 0 00-1.227-1.97 64.51 64.51 0 00-.151.232c-.737 1.136-1.37 2.171-1.676 2.797z" fill="#A61744"/></svg>