<svg width="43" height="45" fill="none" xmlns="http://www.w3.org/2000/svg"><path d="M36.114.931a1 1 0 011.412.085l5.43 6.127-5.43 6.127a1 1 0 01-1.497-1.327l3.37-3.803H8.404l-.887.002.001 1.73v30.526l3.727-3.38a1 1 0 111.344 1.48l-6.07 5.507-6.073-5.506a1 1 0 011.343-1.482l3.73 3.381V9.872l-.002-1.8-.001-1.935 1.004.003c.455.002 1.207.002 1.874 0h31L36.03 2.343A1 1 0 0136.114.93zm5.504 37.991a1 1 0 011 1c0 .206.002.453.004.722v.001c.005.625.011 1.373-.004 2.03l-.023.978h-3.677a1 1 0 110-2h1.71a95.6 95.6 0 00-.006-.948 99.5 99.5 0 01-.004-.783 1 1 0 011-1zm-10.802 2.734a1 1 0 000 2h2.7a1 1 0 100-2h-2.7zm-9.101 1a1 1 0 011-1h2.7a1 1 0 010 2h-2.7a1 1 0 01-1-1zm-7.098-1a1 1 0 000 2h2.7a1 1 0 100-2h-2.7zm27.004-10.929a1 1 0 011 1v2.73a1 1 0 11-2 0v-2.73a1 1 0 011-1zm1-7.196a1 1 0 00-2 0v2.731a1 1 0 102 0v-2.73zm-1-9.195a1 1 0 011 1v2.73a1 1 0 11-2 0v-2.73a1 1 0 011-1z" fill="#A61744"/><path fill-rule="evenodd" clip-rule="evenodd" d="M28.56 16.933a1 1 0 00-1.636 0c-2.417 3.437-5.124 7.704-6.239 10.104a4.405 4.405 0 00.135 3.807c.576 1.088 1.666 1.956 3.069 1.956h2.857v4.198a1 1 0 102 0V32.8h2.848c1.403 0 2.493-.867 3.069-1.956a4.41 4.41 0 00.135-3.807c-1.115-2.4-3.915-6.796-6.238-10.104zM23.889 30.8h2.857v-1.25H24.17v-1.001c.001-.595 0-1.488-.002-1.945a1 1 0 012-.005l.002.95h.576v-2.244a1 1 0 112 0V30.8h2.848c.506 0 .992-.307 1.301-.891a2.41 2.41 0 00.083-2.044c-.92-1.972-3.138-5.529-5.237-8.602-2.154 3.147-4.314 6.623-5.236 8.603a2.404 2.404 0 00.082 2.042c.31.584.796.892 1.302.892z" fill="#A61744"/></svg>