<svg width="48" height="48" fill="none" xmlns="http://www.w3.org/2000/svg"><path d="M22.81 12.035L6.193 28.848l-3.02-2.745m4.343-4.224l2.833 2.767" stroke="#A61744" stroke-width="2" stroke-linecap="round" stroke-linejoin="round"/><path d="M26.967 13.778c-2.66 0-4.986-1.809-5.673-4.407-.687-2.599.436-5.34 2.74-6.685a5.824 5.824 0 017.09.946c.364.368.678.781.936 1.23m13.999 29.723L33.329 23c-.53-.483-1.171-1.115-1.892-1.762A54.363 54.363 0 0029.401 23L16.684 34.585m26.437-2.678V24.18" stroke="#A61744" stroke-width="2" stroke-linecap="round" stroke-linejoin="round"/><path d="M26.965 7.836c1.462.638 2.413 1.091 4.406 2.043v20.246m-8.801 4.207v12h17.642v-12" stroke="#A61744" stroke-width="2" stroke-linecap="round"/></svg>