<svg width="122" height="621" fill="none" xmlns="http://www.w3.org/2000/svg"><path d="M25.247 5.908V.445h13.486v13.657h-5.292V5.908h-8.194zM.152 14.273V.616H13.64v5.292H5.444v8.365H.152zm25.095 17.583h8.194v-8.365h5.292v13.657H25.247v-5.292zm-11.437 0v5.292H.322V23.491h5.292v8.365h8.194zM.152 173.376V159.89l13.487-.171v5.292H5.444v8.365H.152zm33.289-8.194h-8.194v-5.292h13.486v13.657h-5.292v-8.365zm-8.194 25.777h8.194v-8.365h5.292v13.657H25.247v-5.292zm-11.437 0v5.292H.322v-13.657h5.292v8.365h8.194zm-13.658 88.6v-13.658H13.64v5.292H5.444v8.366H.152zm33.289-8.366h-8.194v-5.292h13.486v13.658h-5.292v-8.366zm-8.194 25.949h8.194v-8.365h5.292v13.657H25.247v-5.292zm-11.608 5.292H.152v-13.487h5.292v8.195h8.195v5.292zM78.74 5.908V.445h13.485v13.657h-5.292V5.908H78.74zM53.645.616v13.657h5.292V5.908h8.194V.616H53.645zm33.288 31.24H78.74v5.292h13.486V23.491h-5.292v8.365zm-19.631 5.292v-5.292h-8.195v-8.365h-5.292v13.657h13.487zM53.645 53.707v13.657h5.292V59h8.194v-5.292H53.645zm25.095 5.292h8.193v8.365h5.292V53.707H78.74v5.292zm8.193 25.948H78.74v5.292h13.486V76.583h-5.292v8.364zM53.645 90.24H67.13v-5.293h-8.194v-8.364h-5.292v13.656zm0 16.559v13.657h5.292v-8.365h8.194v-5.292H53.645zm25.095 5.292h8.193v8.365h5.292v-13.657H78.74v5.292zm8.193 25.777H78.74v5.292h13.486v-13.657h-5.292v8.365zm-33.288 5.292H67.13v-5.292h-8.194v-8.365h-5.292v13.657zm0 16.73v13.486h5.292v-8.365h8.194v-5.292l-13.486.171zm25.095 5.292h8.193v8.365h5.292V159.89H78.74v5.292zm8.193 25.777H78.74v5.292h13.486v-13.657h-5.292v8.365zm-19.631 5.292v-5.292h-8.195v-8.365h-5.292v13.657h13.487zm-13.657 69.65v13.658h5.292v-8.366h8.194v-5.292H53.645zm25.095 5.292h8.193v8.366h5.292v-13.658H78.74v5.292zm8.193 25.949H78.74v5.292h13.486v-13.657h-5.292v8.365zm-33.288 5.292H67.13v-5.292h-8.194v-8.195h-5.292v13.487zM108.152.616v13.657h5.292V5.908h8.195V.616h-13.487zm13.657 36.532v-5.292h-8.194v-8.365h-5.292v13.657h13.486zm-13.657 16.559v13.657h5.292V59h8.195v-5.292h-13.487zm0 36.533h13.487v-5.293h-8.195v-8.364h-5.292v13.656zm0 16.559v13.657h5.292v-8.365h8.195v-5.292h-13.487zm0 36.361h13.487v-5.292h-8.195v-8.365h-5.292v13.657zm0 16.73v13.486h5.292v-8.365h8.195v-5.292l-13.487.171zm13.657 36.361v-5.292h-8.194v-8.365h-5.292v13.657h13.486zm-13.657 16.559v13.657h5.292v-8.364h8.195v-5.293h-13.487zm13.657 36.532v-5.292h-8.194v-8.364h-5.292v13.656h13.486zm-13.657 16.559v13.658h5.292v-8.366h8.195v-5.292h-13.487zm0 36.533h13.487v-5.292h-8.195v-8.195h-5.292v13.487zm0 16.559v13.656h5.292v-8.364h8.195v-5.292h-13.487zm5.292 22.875h-5.292v13.657h13.487v-5.292h-8.195v-8.365zM.152 544.548v-13.486l13.487-.171v5.292H5.444v8.365H.152zm33.289-8.194h-8.194v-5.292h13.486v13.657h-5.292v-8.365zm-8.194 25.777h8.194v-8.365h5.292v13.657H25.247v-5.292zm-11.437 0v5.292H.322v-13.657h5.292v8.365h8.194zM78.74 377.08v-5.463h13.485v13.657h-5.292v-8.194H78.74zm-25.095-5.292v13.657h5.292v-8.365h8.194v-5.292H53.645zm33.288 31.24H78.74v5.292h13.486v-13.657h-5.292v8.365zm-19.631 5.292v-5.292h-8.195v-8.365h-5.292v13.657h13.487zm-13.657 69.651v13.656h5.292v-8.364h8.194v-5.292H53.645zm25.095 5.292h8.193v8.364h5.292v-13.656H78.74v5.292zm8.193 25.777H78.74v5.292h13.486v-13.657h-5.292v8.365zm-33.288 5.292H67.13v-5.292h-8.194v-8.365h-5.292v13.657zm0 16.73v13.486h5.292v-8.365h8.194v-5.292l-13.486.171zm25.095 5.292h8.193v8.365h5.292v-13.657H78.74v5.292zm8.193 25.777H78.74v5.292h13.486v-13.657h-5.292v8.365zm-19.631 5.292v-5.292h-8.195v-8.365h-5.292v13.657h13.487zm40.85-195.635v13.657h5.292v-8.365h8.195v-5.292h-13.487zm13.657 36.532v-5.292h-8.194v-8.365h-5.292v13.657h13.486zm-13.657 16.559v13.657h5.292v-8.365h8.195v-5.292h-13.487zm0 36.532h13.487v-5.292h-8.195v-8.364h-5.292v13.656zm0 16.56v13.656h5.292v-8.364h8.195v-5.292h-13.487zm0 36.361h13.487v-5.292h-8.195v-8.365h-5.292v13.657zm0 16.73v13.486h5.292v-8.365h8.195v-5.292l-13.487.171zm13.657 36.361v-5.292h-8.194v-8.365h-5.292v13.657h13.486zm-13.657 16.559v13.657h5.292v-8.365h8.195v-5.292h-13.487zm13.657 36.532v-5.292h-8.194v-8.365h-5.292v13.657h13.486z" fill="#BF8468" fill-opacity=".46"/></svg>