<svg width="160" height="60" fill="none" xmlns="http://www.w3.org/2000/svg"><g clip-path="url(#clip0)"><path d="M160.001.555H144.57v6.092h9.417v9.54h6.014V.554z" fill="#A51A43"/><path d="M153.986 22.2v31.263H0v6.092h160V22.2h-6.014zM138.635.555H0V47.37h6.014V6.647h132.621V.555z" fill="#7A442D"/><path d="M26.112 30.136c3.007 0 4.748-1.844 4.748-4.249 0-2.726-1.9-4.168-4.827-4.168h-4.669v8.417h4.748zM15.43 16.348h11.078c6.488 0 10.366 3.848 10.366 9.54 0 6.332-4.906 9.619-11 9.619h-4.51v8.256H15.43V16.348zm43.362 0h6.49L54.835 37.51c-2.374 4.81-5.064 6.653-8.863 6.653a11.48 11.48 0 01-5.855-1.603l2.295-4.409c.95.561 2.057.882 3.244.882 1.108 0 2.295-.481 3.403-2.165l-10.841-20.52h6.647l7.359 14.51 6.567-14.51zm6.251 13.707c.158-8.016 6.647-14.35 14.56-14.189a14.142 14.142 0 0110.05 4.49l-3.562 4.168c-2.057-1.924-3.877-3.046-6.963-3.046-4.59 0-7.834 3.848-7.834 8.657 0 4.81 3.245 8.658 7.834 8.658 3.086 0 4.985-1.283 7.122-3.207l3.798 4.089c-2.77 3.046-5.856 4.65-11.078 4.65-7.597.08-13.769-6.013-13.927-13.629.08-.32.08-.48 0-.64zm52.859 13.707h-5.856V25.805l-11.869 17.957h-5.618V16.266h5.934v18.036l11.87-18.036h5.539v27.496zm20.734-10.26c-2.216 1.203-4.669 1.924-7.122 2.005-5.381 0-9.1-2.886-9.1-9.22v-9.94h5.935v8.258c0 3.447 1.345 5.37 4.352 5.37 2.136 0 4.194-.56 5.935-1.763V16.348h5.934v27.496h-5.934V33.502z" fill="#A61744"/></g><defs><clipPath id="clip0"><path fill="#fff" transform="translate(0 .555)" d="M0 0h160v59H0z"/></clipPath></defs></svg>