<svg width="1636" height="144" fill="none" xmlns="http://www.w3.org/2000/svg"><path d="M233.704.945h-13.486v13.657h5.292V6.237h8.194V.945zm19.802 5.292h-8.194V.945h13.486v13.657h-5.292V6.237zm-8.023 25.948h8.194v-8.364h5.292v13.656h-13.486v-5.291zm-25.265 5.292V23.822h5.292v8.364h8.194v5.292h-13.486zm0 30.216V54.037h13.486v5.292h-8.194v8.364h-5.292zm33.288-8.364h-8.194v-5.463h13.486v13.657h-5.292v-8.194zm-8.023 25.948h8.194v-8.365h5.292v13.657h-13.486v-5.292zm-25.265 5.292V76.912h5.292v8.365h8.194v5.292h-13.486zm0 30.216v-13.657h13.486v5.292h-8.194v8.365h-5.292zm33.288-8.365h-8.194v-5.292h13.486v13.657h-5.292v-8.365zm-8.023 25.948h8.194v-8.365h5.292v13.657h-13.486v-5.292zm-25.265 5.292v-13.657h5.292v8.365h8.194v5.292h-13.486zm178.734-84.331h-8.194v8.364h-5.292V54.037h13.486v5.292zm19.803 0h-8.194v-5.463h13.486v13.657h-5.292v-8.194zm-8.194 25.948h8.194v-8.365h5.292v13.657h-13.486v-5.292zm-25.095-8.365h5.292v8.365h8.194v5.292h-13.486V76.912zm-49.677 43.702h-5.292v-13.657h13.486v5.292h-8.194v8.365zm33.289 0h-5.292v-8.365h-8.194v-5.292h13.486v13.657zm0 9.389v13.657h-13.486v-5.292h8.194v-8.365h5.292zm-38.581 13.657v-13.657h5.292v8.365h8.194v5.292h-13.486zm68.455-31.24h-8.194v8.365h-5.292v-13.657h13.486v5.292zm19.803 0h-8.194v-5.292h13.486v13.657h-5.292v-8.365zm-8.194 25.948h8.194v-8.365h5.292v13.657h-13.486v-5.292zm-25.095-8.365h5.292v8.365h8.194v5.292h-13.486v-13.657zM0 67.693V54.037h13.486v5.292H5.292v8.364H0zm25.095-13.656H38.58v13.486h-5.292v-8.194h-8.194v-5.292zM38.58 76.912v13.657H25.096v-5.292h8.194v-8.365h5.292zM0 90.569V76.912h5.292v8.365h8.194v5.292H0zm54.969-22.876V54.037h13.486v5.292h-8.194v8.364H54.97zm33.289-8.364h-8.194v-5.463H93.55v13.657h-5.292v-8.194zm-8.024 25.948h8.195v-8.365h5.291v13.657H80.234v-5.292zm-19.802 0h8.194v5.292H55.14V76.912h5.292v8.365zm-55.14 35.337H0v-13.657h13.486v5.292H5.292v8.365zm33.288-13.657v13.657h-5.29v-8.365h-8.194v-5.292H38.58zm0 23.046v13.657H25.096v-5.292h8.194v-8.365h5.292zM0 143.66v-13.657h5.292v8.365h8.194v5.292H0zm60.261-23.046H54.97v-13.657h13.486v5.292h-8.194v8.365zm27.997-8.194h-8.194v-5.292H93.55v13.657h-5.292v-8.365zm-8.024 25.948h8.195v-8.365h5.291v13.657H80.234v-5.292zm-19.802 0h8.194v5.292H55.14v-13.657h5.292v8.365zM178.735 6.237h-8.194v8.365h-5.292V.945h13.486v5.292zm19.632 0h-8.195V.945h13.487v13.657h-5.292V6.237zm-8.024 25.948h8.194v-8.364h5.292v13.656h-13.486v-5.291zm-25.094-8.365h5.292v8.365h8.194v5.292h-13.486V23.822zm13.486 30.217v5.292h-8.194v8.364h-5.292V54.037h13.486zm19.632 5.292h-8.195v-5.463h13.487v13.657h-5.292v-8.194zm-8.024 25.948h8.194v-8.365h5.292v13.657h-13.486v-5.292zm-25.094-8.365h5.292v8.365h8.194v5.292h-13.486V76.912zm-49.848 43.702h-5.292v-13.657h13.486v5.292h-8.194v8.365zm27.996-8.194h-8.194v-5.292h13.487v13.657h-5.293v-8.365zm-8.194 25.948h8.194v-8.365h5.293v13.657h-13.487v-5.292zm-25.094 5.292v-13.657h5.292v8.365h8.194v5.292h-13.486zm68.626-36.532v5.292h-8.194v8.365h-5.292v-13.657h13.486zm19.632 5.292h-8.195v-5.292h13.487v13.657h-5.292v-8.365zm-8.024 25.948h8.194v-8.365h5.292v13.657h-13.486v-5.292zm-25.094-8.365h5.292v8.365h8.194v5.292h-13.486v-13.657zm551.397-62.31V54.037h13.486v5.292h-8.194v8.364h-5.292zm33.289-8.364h-8.194v-5.463h13.486v13.657h-5.292v-8.194zm-8.194 25.948h8.194v-8.365h5.292v13.657h-13.486v-5.292zm-25.095-8.365h5.292v8.365h8.194v5.292h-13.486V76.912zm5.292 43.702h-5.292v-13.657h13.486v5.292h-8.194v8.365zm27.997-8.194h-8.194v-5.292h13.486v13.657h-5.292v-8.365zm-8.194 25.948h8.194v-8.365h5.292v13.657h-13.486v-5.292zm-25.095-8.365h5.292v8.365h8.194v5.292h-13.486v-13.657zm55.14-62.31V54.037h13.486v5.292h-8.194v8.364h-5.292zm33.289-8.364h-8.195v-5.463h13.487v13.657h-5.292v-8.194zm-8.195 25.948h8.195v-8.365h5.292v13.657H796.88v-5.292zm-11.608 0v5.292h-13.486V76.912h5.292v8.365h8.194zm41.483-17.584V54.037h13.486v5.292h-8.194v8.364h-5.292zm25.094-8.364v-5.463h13.487v13.657h-5.292v-8.194h-8.195zm0 25.948h8.195v-8.365h5.292v13.657h-13.487v-5.292zm-11.437 0v5.292h-13.486V76.912h5.292v8.365h8.194zm-68.626 35.508v-13.657h13.486v5.292h-8.194v8.365h-5.292zm33.289-8.365h-8.195v-5.292h13.487v13.657h-5.292v-8.365zm-8.195 25.948h8.195v-8.365h5.292v13.657H796.88v-5.292zm-11.608 5.292h-13.486v-13.657h5.292v8.365h8.194v5.292zm41.483-22.875v-13.657h13.486v5.292h-8.194v8.365h-5.292zm33.289-8.365h-8.195v-5.292h13.487v13.657h-5.292v-8.365zm-8.195 25.948h8.195v-8.365h5.292v13.657h-13.487v-5.292zm-11.608 5.292h-13.486v-13.657h5.292v8.365h8.194v5.292zM441.289 67.693V54.037h13.486v5.292h-8.194v8.364h-5.292zm25.094-13.656h13.486v13.486h-5.292v-8.194h-8.194v-5.292zm13.486 22.875v13.657h-13.486v-5.292h8.194v-8.365h5.292zm-33.288 8.365h8.194v5.292h-13.486V76.912h5.292v8.365zm0 35.337h-5.292v-13.657h13.486v5.292h-8.194v8.365zm27.996-8.194h-8.194v-5.292h13.486v13.657h-5.292v-8.365zm5.292 31.24h-13.486v-5.292h8.194v-8.365h5.292v13.657zm-33.288-5.292h8.194v5.292h-13.486v-13.657h5.292v8.365zm118.303-25.948h-8.194v8.365h-5.292v-13.657h13.486v5.292zm11.608 0v-5.292h13.486v13.657h-5.292v-8.365h-8.194zm.171 25.948h8.194v-8.365h5.292v13.657h-13.486v-5.292zm-25.265-8.365h5.292v8.365h8.194v5.292h-13.486v-13.657zm60.431-9.389h-5.292v-13.657h13.486v5.292h-8.194v8.365zm19.803-8.194v-5.292h13.486v13.657h-5.292v-8.365h-8.194zm0 25.948h8.194v-8.365h5.292v13.657h-13.486v-5.292zm-25.095 5.292v-13.657h5.292v8.365h8.194v5.292h-13.486zM1113.7.945h-13.48v13.657h5.29V6.237h8.19V.945zm19.81 5.292h-8.2V.945h13.49v13.657h-5.29V6.237zm-8.03 25.948h8.2v-8.364h5.29v13.656h-13.49v-5.291zm-25.26 5.292V23.822h5.29v8.364h8.19v5.292h-13.48zm0 30.216V54.037h13.48v5.292h-8.19v8.364h-5.29zm33.29-8.364h-8.2v-5.463h13.49v13.657h-5.29v-8.194zm-8.03 25.948h8.2v-8.365h5.29v13.657h-13.49v-5.292zm-25.26 5.292V76.912h5.29v8.365h8.19v5.292h-13.48zm0 30.216v-13.657h13.48v5.292h-8.19v8.365h-5.29zm33.29-8.365h-8.2v-5.292h13.49v13.657h-5.29v-8.365zm-8.03 25.948h8.2v-8.365h5.29v13.657h-13.49v-5.292zm-25.26 5.292v-13.657h5.29v8.365h8.19v5.292h-13.48zm178.73-84.331h-8.19v8.364h-5.29V54.037h13.48v5.292zm19.8 0h-8.19v-5.463h13.49v13.657h-5.3v-8.194zm-8.19 25.948h8.19v-8.365h5.3v13.657h-13.49v-5.292zm-25.09-8.365h5.29v8.365h8.19v5.292h-13.48V76.912zm-49.68 43.702h-5.29v-13.657h13.48v5.292h-8.19v8.365zm33.29 0h-5.29v-8.365h-8.2v-5.292h13.49v13.657zm0 9.389v13.657h-13.49v-5.292h8.2v-8.365h5.29zm-38.58 13.657v-13.657h5.29v8.365h8.19v5.292h-13.48zm68.45-31.24h-8.19v8.365h-5.29v-13.657h13.48v5.292zm19.8 0h-8.19v-5.292h13.49v13.657h-5.3v-8.365zm-8.19 25.948h8.19v-8.365h5.3v13.657h-13.49v-5.292zm-25.09-8.365h5.29v8.365h8.19v5.292h-13.48v-13.657zM880 67.693V54.037h13.486v5.292h-8.194v8.364H880zm25.095-13.656h13.486v13.486h-5.292v-8.194h-8.194v-5.292zm13.486 22.875v13.657h-13.486v-5.292h8.194v-8.365h5.292zM880 90.569V76.912h5.292v8.365h8.194v5.292H880zm54.969-22.876V54.037h13.486v5.292h-8.194v8.364h-5.292zm33.289-8.364h-8.194v-5.463h13.486v13.657h-5.292v-8.194zm-8.024 25.948h8.194v-8.365h5.293v13.657h-13.487v-5.292zm-19.802 0h8.194v5.292H935.14V76.912h5.292v8.365zm-55.14 35.337H880v-13.657h13.486v5.292h-8.194v8.365zm33.289-13.657v13.657h-5.292v-8.365h-8.194v-5.292h13.486zm0 23.046v13.657h-13.486v-5.292h8.194v-8.365h5.292zM880 143.66v-13.657h5.292v8.365h8.194v5.292H880zm60.261-23.046h-5.292v-13.657h13.486v5.292h-8.194v8.365zm27.997-8.194h-8.194v-5.292h13.486v13.657h-5.292v-8.365zm-8.024 25.948h8.194v-8.365h5.293v13.657h-13.487v-5.292zm-19.802 0h8.194v5.292H935.14v-13.657h5.292v8.365zM1058.73 6.237h-8.19v8.365h-5.29V.945h13.48v5.292zm19.64 0h-8.2V.945h13.49v13.657h-5.29V6.237zm-8.03 25.948h8.2v-8.364h5.29v13.656h-13.49v-5.291zm-25.09-8.365h5.29v8.365h8.19v5.292h-13.48V23.822zm13.48 30.217v5.292h-8.19v8.364h-5.29V54.037h13.48zm19.64 5.292h-8.2v-5.463h13.49v13.657h-5.29v-8.194zm-8.03 25.948h8.2v-8.365h5.29v13.657h-13.49v-5.292zm-25.09-8.365h5.29v8.365h8.19v5.292h-13.48V76.912zm-49.849 43.702h-5.292v-13.657h13.481v5.292h-8.189v8.365zm27.999-8.194h-8.2v-5.292h13.49v13.657h-5.29v-8.365zm-8.2 25.948h8.2v-8.365h5.29v13.657h-13.49v-5.292zm-25.091 5.292v-13.657h5.292v8.365h8.189v5.292h-13.481zm68.621-36.532v5.292h-8.19v8.365h-5.29v-13.657h13.48zm19.64 5.292h-8.2v-5.292h13.49v13.657h-5.29v-8.365zm-8.03 25.948h8.2v-8.365h5.29v13.657h-13.49v-5.292zm-25.09-8.365h5.29v8.365h8.19v5.292h-13.48v-13.657zm551.4-62.31V54.037h13.48v5.292h-8.19v8.364h-5.29zm33.28-8.364h-8.19v-5.463h13.49v13.657h-5.3v-8.194zm-8.19 25.948h8.19v-8.365h5.3v13.657h-13.49v-5.292zm-25.09-8.365h5.29v8.365h8.19v5.292h-13.48V76.912zm5.29 43.702h-5.29v-13.657h13.48v5.292h-8.19v8.365zm27.99-8.194h-8.19v-5.292h13.49v13.657h-5.3v-8.365zm-8.19 25.948h8.19v-8.365h5.3v13.657h-13.49v-5.292zm-25.09-8.365h5.29v8.365h8.19v5.292h-13.48v-13.657zm-275.36-62.31V54.037h13.48v5.292h-8.19v8.364h-5.29zm25.09-13.656h13.49v13.486h-5.29v-8.194h-8.2v-5.292zm13.49 22.875v13.657h-13.49v-5.292h8.2v-8.365h5.29zm-33.29 8.365h8.19v5.292h-13.48V76.912h5.29v8.365zm0 35.337h-5.29v-13.657h13.48v5.292h-8.19v8.365zm28-8.194h-8.2v-5.292h13.49v13.657h-5.29v-8.365zm5.29 31.24h-13.49v-5.292h8.2v-8.365h5.29v13.657zm-33.29-5.292h8.19v5.292h-13.48v-13.657h5.29v8.365zm118.3-25.948h-8.19v8.365h-5.29v-13.657h13.48v5.292zm11.61 0v-5.292h13.49v13.657h-5.29v-8.365h-8.2zm.17 25.948h8.2v-8.365h5.29v13.657h-13.49v-5.292zm-25.26-8.365h5.29v8.365h8.19v5.292h-13.48v-13.657zm60.43-9.389h-5.29v-13.657h13.48v5.292h-8.19v8.365zm19.8-8.194v-5.292h13.49v13.657h-5.29v-8.365h-8.2zm0 25.948h8.2v-8.365h5.29v13.657h-13.49v-5.292zm-25.09 5.292v-13.657h5.29v8.365h8.19v5.292h-13.48z" fill="#fff" fill-opacity=".71"/></svg>