<svg width="145" height="150" fill="none" xmlns="http://www.w3.org/2000/svg"><path d="M52.937 107.316V45.3c0-1.926 3.249-2.978 5.493-1.751l48.248 30.657c1.995 1.051 1.995 3.329 0 4.38L58.43 108.893c-2.244 1.401-5.493.175-5.493-1.577z" fill="#fff"/><path fill-rule="evenodd" clip-rule="evenodd" d="M145 75.075c0 41.305-32.459 74.789-72.5 74.789-40.04 0-72.5-33.484-72.5-74.79C0 33.77 32.46.286 72.5.286c40.041 0 72.5 33.485 72.5 74.79zm-9.667 0c0 35.797-28.131 64.817-62.833 64.817S9.667 110.872 9.667 75.075c0-35.798 28.131-64.818 62.833-64.818s62.833 29.02 62.833 64.818z" fill="#fff"/></svg>