<svg width="421" height="574" fill="none" xmlns="http://www.w3.org/2000/svg"><path fill-rule="evenodd" clip-rule="evenodd" d="M299.602.617v53.264h20.64V21.257h31.959V.617h-52.599zm97.873 0h22.81v20.64h-22.81V.617zm0 121.843h22.81v20.64h-22.81v-20.64zm-97.873-32.624h20.64v32.624h31.959v20.64h-52.599V89.836zm-75.075 370.706v-53.265h52.6v20.64h-31.959v32.625h-20.641zm129.833-32.625h-31.959v-20.64H375v53.265h-20.64v-32.625zm0 101.203h-31.959v20.64H375v-53.264h-20.64v32.624zm-129.833-32.624h20.641v32.624h31.959v20.64h-52.6v-53.264zM0 573.686v-53.264h52.6v20.64H20.64v32.624H0zm129.833-32.624h-31.96v-20.64h52.6v53.264h-20.64v-32.624z" fill="#BF8468" fill-opacity=".46"/></svg>